<svg width="877" height="650" viewBox="0 0 877 650" fill="none" xmlns="http://www.w3.org/2000/svg">
<g opacity="0.7">
<path d="M112.902 623.712C112.162 623.746 111.429 623.552 110.803 623.156C110.177 622.759 109.688 622.18 109.402 621.497C109.116 620.813 109.048 620.058 109.205 619.334C109.363 618.61 109.739 617.952 110.283 617.45C110.374 617.087 110.439 616.827 110.531 616.465C110.498 616.386 110.465 616.308 110.432 616.229C109.687 614.468 108.437 612.966 106.841 611.913C105.245 610.86 103.373 610.302 101.461 610.309C99.5484 610.316 97.6808 610.888 96.0925 611.953C94.5042 613.018 93.2661 614.529 92.5337 616.296C89.6063 623.346 85.8792 630.409 84.9615 637.863C84.5573 641.158 84.7278 644.499 85.4654 647.736C78.5898 632.737 75.0195 616.436 74.9965 599.937C74.995 595.796 75.2251 591.659 75.6855 587.545C76.066 584.172 76.594 580.823 77.2693 577.497C80.9544 559.456 88.8667 542.546 100.356 528.156C105.917 525.122 110.414 520.456 113.242 514.787C114.266 512.749 114.99 510.574 115.391 508.329C114.764 508.411 114.126 508.462 113.499 508.504C113.304 508.514 113.098 508.524 112.902 508.534L112.829 508.538C112.139 508.569 111.456 508.4 110.86 508.051C110.264 507.702 109.782 507.189 109.472 506.573C109.161 505.957 109.035 505.264 109.109 504.578C109.183 503.891 109.454 503.241 109.889 502.705C110.16 502.372 110.431 502.039 110.702 501.706C111.113 501.192 111.535 500.688 111.946 500.174C111.993 500.125 112.038 500.073 112.08 500.019C112.553 499.433 113.026 498.857 113.499 498.271C112.635 496.931 111.474 495.808 110.105 494.991C105.364 492.214 98.8239 494.137 95.3994 498.425C91.9646 502.714 91.3168 508.73 92.5097 514.088C93.6828 518.647 95.6233 522.973 98.2481 526.881C97.9909 527.21 97.7235 527.529 97.4664 527.858C92.7667 533.901 88.6706 540.39 85.2367 547.232C86.0718 539.567 85.0751 531.813 82.3287 524.608C79.5452 517.893 74.3281 512.238 69.7337 506.433C64.2152 499.46 52.8988 502.503 51.9266 511.342C51.9172 511.428 51.908 511.513 51.899 511.599C52.5814 511.984 53.2494 512.393 53.903 512.825C54.7241 513.373 55.3603 514.157 55.7283 515.074C56.0963 515.99 56.1789 516.996 55.9653 517.96C55.7517 518.924 55.2519 519.801 54.5313 520.476C53.8107 521.152 52.903 521.593 51.927 521.744L51.8271 521.759C52.0702 524.219 52.4999 526.656 53.1125 529.051C54.8877 535.735 58.0246 541.98 62.3265 547.395C66.6285 552.81 72.0027 557.278 78.1123 560.519C78.5134 560.725 78.9043 560.93 79.3054 561.126C75.8554 570.903 73.6913 581.087 72.8677 591.422C72.4014 597.519 72.4289 603.644 72.95 609.737L72.9192 609.521C71.6027 602.746 67.9885 596.633 62.6867 592.213C54.8124 585.745 43.6874 583.363 35.1923 578.164C34.2895 577.584 33.2397 577.275 32.1668 577.272C31.0939 577.269 30.0427 577.574 29.1371 578.149C28.2314 578.724 27.5092 579.546 27.0555 580.519C26.6018 581.491 26.4357 582.572 26.5766 583.636C26.588 583.712 26.5996 583.787 26.6113 583.863C27.8777 584.379 29.1107 584.973 30.3032 585.642C30.9856 586.027 31.6536 586.436 32.3072 586.868C33.1282 587.416 33.7645 588.2 34.1325 589.117C34.5005 590.033 34.5831 591.039 34.3695 592.003C34.1559 592.967 33.6561 593.844 32.9355 594.52C32.2149 595.195 31.3071 595.637 30.3312 595.787L30.2312 595.802C30.1592 595.813 30.0975 595.823 30.0256 595.833C32.1893 601 35.2262 605.755 39.0033 609.891C43.6692 614.898 49.3086 618.899 55.5756 621.649C61.8427 624.398 68.6053 625.839 75.449 625.883H75.4593C77.3171 633.955 80.0087 641.813 83.491 649.33H112.183C112.286 649.011 112.378 648.682 112.471 648.363C109.815 648.53 107.149 648.371 104.531 647.89C106.66 645.278 108.789 642.645 110.918 640.033C110.965 639.984 111.01 639.933 111.051 639.879C112.131 638.542 113.221 637.215 114.301 635.878L114.302 635.877C114.359 631.779 113.889 627.69 112.903 623.713L112.902 623.712Z" fill="#F2F2F2"/>
<path d="M684.985 606.619C685.53 607.121 686.216 607.444 686.95 607.544C687.684 607.644 688.431 607.515 689.09 607.176C689.748 606.837 690.287 606.304 690.632 605.648C690.978 604.993 691.113 604.247 691.021 603.512C691.184 603.176 691.301 602.935 691.465 602.599C691.541 602.56 691.616 602.521 691.692 602.482C693.396 601.614 695.319 601.269 697.219 601.491C699.118 601.712 700.91 602.49 702.369 603.726C703.827 604.963 704.888 606.603 705.418 608.44C705.948 610.278 705.923 612.231 705.346 614.054C703.048 621.334 701.354 629.138 697.258 635.434C695.446 638.216 693.165 640.662 690.517 642.664C705.433 635.613 718.659 625.436 729.297 612.825C731.964 609.657 734.451 606.343 736.747 602.898C738.627 600.072 740.379 597.169 742.003 594.19C750.796 578.011 755.627 559.977 756.097 541.569C753.795 535.667 753.357 529.202 754.842 523.043C755.37 520.825 756.216 518.694 757.354 516.718C757.782 517.184 758.236 517.634 758.69 518.069C758.833 518.203 758.984 518.343 759.127 518.477L759.181 518.527C759.688 518.994 760.32 519.305 761.001 519.422C761.681 519.538 762.38 519.456 763.015 519.184C763.649 518.913 764.192 518.464 764.577 517.891C764.962 517.318 765.173 516.646 765.185 515.956C765.192 515.527 765.199 515.097 765.206 514.668C765.222 514.01 765.224 513.353 765.24 512.694C765.235 512.627 765.234 512.558 765.237 512.49C765.253 511.737 765.261 510.992 765.277 510.239C766.8 509.769 768.412 509.658 769.985 509.913C775.401 510.84 779.168 516.522 779.028 522.008C778.896 527.501 775.519 532.522 771.158 535.854C767.325 538.588 763.055 540.649 758.531 541.95C758.516 542.367 758.516 542.783 758.5 543.201C758.207 550.851 757.164 558.453 755.388 565.9C759.683 559.496 765.437 554.204 772.177 550.458C778.629 547.111 786.262 546.142 793.515 544.657C802.226 542.874 808.927 552.487 803.982 559.877C803.934 559.948 803.886 560.02 803.838 560.091C803.067 559.946 802.293 559.829 801.515 559.739C800.533 559.63 799.542 559.821 798.67 560.285C797.799 560.749 797.088 561.466 796.631 562.341C796.174 563.217 795.992 564.21 796.109 565.19C796.225 566.171 796.636 567.093 797.286 567.837L797.352 567.913C795.583 569.638 793.685 571.227 791.675 572.665C786.014 576.638 779.593 579.398 772.815 580.772C766.037 582.147 759.048 582.107 752.287 580.654C751.847 580.553 751.416 580.459 750.983 580.35C747.33 590.053 742.43 599.239 736.408 607.679C732.84 612.645 728.876 617.314 724.555 621.642L724.718 621.496C730.086 617.159 736.787 614.807 743.689 614.838C753.879 614.957 763.926 620.295 773.774 621.785C774.838 621.923 775.84 622.362 776.663 623.05C777.486 623.739 778.094 624.648 778.417 625.672C778.74 626.695 778.763 627.789 778.485 628.825C778.206 629.861 777.637 630.796 776.844 631.519C776.787 631.57 776.729 631.62 776.672 631.67C775.371 631.25 774.045 630.911 772.701 630.655C771.931 630.511 771.157 630.393 770.379 630.303C769.397 630.195 768.406 630.385 767.534 630.849C766.663 631.314 765.952 632.03 765.495 632.906C765.038 633.781 764.855 634.774 764.972 635.755C765.089 636.735 765.499 637.657 766.149 638.401L766.216 638.477C766.264 638.531 766.305 638.579 766.353 638.633C761.372 641.194 755.987 642.878 750.434 643.612C743.64 644.44 736.749 643.871 730.183 641.942C723.617 640.012 717.515 636.761 712.249 632.389L712.242 632.382C705.623 637.364 698.505 641.645 691.002 645.155L669.045 626.686C669.172 626.376 669.313 626.064 669.447 625.761C671.372 627.598 673.515 629.193 675.827 630.509C675.879 627.14 675.945 623.755 675.998 620.386C675.993 620.318 675.992 620.25 675.995 620.182C676.029 618.464 676.049 616.747 676.083 615.028L676.083 615.027C678.677 611.854 681.669 609.028 684.984 606.619L684.985 606.619Z" fill="black"/>
<path d="M210.678 451.424C209.874 451.231 209.123 450.863 208.477 450.348C207.831 449.833 207.305 449.182 206.938 448.442C206.571 447.701 206.37 446.89 206.35 446.063C206.331 445.237 206.492 444.417 206.824 443.66L192.084 430.01L202.222 427.521L214.665 440.864C215.9 441.506 216.856 442.578 217.353 443.877C217.85 445.177 217.853 446.614 217.362 447.915C216.87 449.217 215.918 450.293 214.686 450.94C213.454 451.587 212.028 451.759 210.678 451.424Z" fill="#FFB6B6"/>
<path d="M165.697 414.198L150.247 369.099C149.026 365.523 149.274 361.609 150.936 358.215C152.597 354.821 155.538 352.225 159.111 350.997C161.09 350.319 163.194 350.085 165.274 350.312C167.354 350.538 169.358 351.22 171.145 352.309C172.932 353.397 174.457 354.865 175.612 356.61C176.767 358.354 177.525 360.331 177.83 362.401L184.005 404.272L209.838 430.727L203.043 440.409L165.697 414.198Z" fill="#3F3D56"/>
<path d="M140.192 626.96H151.222L156.469 584.418H140.19L140.192 626.96Z" fill="#FFB6B6"/>
<path d="M136.457 621.519L153.893 620.479V627.948L170.469 639.396C171.287 639.962 171.904 640.774 172.228 641.715C172.553 642.655 172.568 643.675 172.272 644.625C171.976 645.575 171.384 646.405 170.583 646.995C169.781 647.584 168.812 647.902 167.817 647.902H134.259L136.457 621.519Z" fill="#2F2E41"/>
<path d="M149.828 427.131C149.828 427.131 146.39 423.529 139.8 432.039C133.711 439.745 134.014 441.25 134.8 451.039C135.44 458.039 129.168 493.221 135.418 499.201L140.458 611.881C140.458 611.881 155.749 616.173 156.469 608.973L195.948 465.691L191.231 429.058L149.828 427.131Z" fill="#2F2E41"/>
<path d="M222.852 625.894L232.517 620.58L216.619 580.773L202.354 588.616L222.852 625.894Z" fill="#FFB6B6"/>
<path d="M216.958 622.925L231.735 613.613L235.334 620.159L255.374 622.205C256.364 622.306 257.296 622.72 258.033 623.388C258.771 624.056 259.276 624.942 259.474 625.917C259.672 626.893 259.553 627.905 259.135 628.808C258.717 629.711 258.021 630.456 257.149 630.936L238.96 640.936L234.6 643.333L227.742 647.104L216.958 622.925Z" fill="#2F2E41"/>
<path d="M135.022 446.143C135.022 446.143 134.822 464.295 133.147 474.927C131.525 484.613 133.627 494.555 139.032 502.755C142.965 508.58 148.759 514.011 157.116 516.24L215.82 612.552C215.82 612.552 231.287 608.946 228.449 602.29L194.014 457.713L172.231 427.885L135.022 446.143Z" fill="#2F2E41"/>
<path d="M134.547 394.789L132.8 451.039L191.053 434.919L192.078 432.138L194.575 422.666C194.575 422.666 188.8 409.039 189.977 377.309L175.262 338.077L151.954 337.601L151.824 337.731C144.463 345.079 139.033 354.135 136.019 364.09C133.004 374.045 132.499 384.591 134.547 394.789Z" fill="#3F3D56"/>
<path d="M251.734 417.907C250.943 418.147 250.109 418.211 249.291 418.095C248.473 417.978 247.69 417.684 246.998 417.232C246.306 416.78 245.722 416.182 245.286 415.48C244.85 414.778 244.573 413.989 244.476 413.168L224.85 408.877L232.326 401.591L249.817 406.783C251.206 406.71 252.574 407.149 253.661 408.017C254.749 408.885 255.48 410.122 255.716 411.493C255.953 412.864 255.678 414.275 254.944 415.457C254.21 416.639 253.068 417.51 251.734 417.907Z" fill="#FFB6B6"/>
<path d="M194.089 408.627L157.906 377.588C155.04 375.125 153.269 371.626 152.981 367.858C152.692 364.09 153.91 360.362 156.367 357.491C157.73 355.903 159.425 354.635 161.332 353.776C163.24 352.917 165.313 352.488 167.405 352.52C169.497 352.553 171.556 353.045 173.436 353.962C175.316 354.88 176.971 356.2 178.284 357.829L204.836 390.789L240.516 400.493L239.568 412.283L194.089 408.627Z" fill="#3F3D56"/>
<path d="M187.8 299.643C187.796 306.022 185.368 312.162 181.007 316.819C176.646 321.475 170.678 324.3 164.312 324.72C157.946 325.141 151.658 323.126 146.723 319.084C141.787 315.041 138.572 309.274 137.73 302.95C136.887 296.626 138.48 290.218 142.186 285.025C145.891 279.832 151.432 276.241 157.686 274.981C163.94 273.72 170.44 274.884 175.868 278.236C181.296 281.589 185.246 286.879 186.92 293.036C187.505 295.189 187.801 297.411 187.8 299.643Z" fill="#FFB8B8"/>
<path d="M178.646 266.541C176.608 266.481 177.308 262.639 175.666 261.414C175.658 261.451 175.649 261.488 175.641 261.525C175.426 262.355 174.95 263.094 174.283 263.633C173.616 264.171 172.794 264.482 171.938 264.519C171.081 264.555 170.235 264.316 169.525 263.836C168.815 263.355 168.278 262.66 167.993 261.851C167.72 260.916 167.227 260.06 166.555 259.355C165.883 258.65 165.052 258.117 164.131 257.8C164.028 261.36 161.335 264.451 158.122 265.989C154.909 267.526 151.246 267.782 147.684 267.835C144.122 267.888 140.509 267.768 137.055 268.64C133.601 269.512 130.242 271.561 128.766 274.803C127.291 278.045 128.343 282.509 131.57 284.017C129.07 284.031 126.949 286.093 126.085 288.439C125.377 290.845 125.192 293.375 125.543 295.858C126.246 305.053 127.958 314.953 134.654 321.294C139.757 326.127 147.061 328.074 154.089 328.046C161.118 328.018 159.882 327.372 166.678 325.578C166.678 325.578 173.138 307.057 171.512 305.234C169.885 303.412 168.533 301.081 168.828 298.656C169.122 296.231 171.728 294.059 173.99 294.982C173.609 294.01 173.323 293.825 173.144 293.874C173.258 293.598 173.357 293.316 173.442 293.029C173.868 291.568 174.634 290.229 175.678 289.122C176.722 288.015 178.014 287.172 179.448 286.661C180.896 286.191 182.453 286.176 183.91 286.616C185.367 287.057 186.654 287.934 187.599 289.128C195.04 282.149 190.423 266.891 178.646 266.541Z" fill="#2F2E41"/>
<path d="M610.922 451.424C611.725 451.231 612.476 450.863 613.122 450.348C613.768 449.833 614.294 449.182 614.661 448.442C615.029 447.701 615.229 446.89 615.249 446.063C615.268 445.237 615.107 444.417 614.775 443.66L629.515 430.01L619.377 427.521L606.934 440.864C605.699 441.506 604.743 442.578 604.246 443.877C603.749 445.177 603.746 446.614 604.237 447.915C604.729 449.217 605.681 450.293 606.913 450.94C608.145 451.587 609.571 451.759 610.922 451.424Z" fill="#9E616A"/>
<path d="M618.556 440.409L611.761 430.727L637.594 404.272L643.769 362.401C644.075 360.331 644.832 358.354 645.987 356.61C647.143 354.865 648.668 353.397 650.454 352.309C652.241 351.22 654.245 350.538 656.325 350.312C658.405 350.085 660.509 350.319 662.488 350.997C666.062 352.225 669.002 354.821 670.664 358.215C672.325 361.609 672.573 365.523 671.352 369.099L655.902 414.198L618.556 440.409Z" fill="#E6E6E6"/>
<path d="M681.407 626.96H670.377L665.13 584.418H681.409L681.407 626.96Z" fill="#9E616A"/>
<path d="M687.34 647.902H653.782C652.787 647.902 651.818 647.584 651.017 646.995C650.215 646.405 649.623 645.575 649.327 644.625C649.031 643.675 649.046 642.655 649.371 641.715C649.695 640.774 650.312 639.962 651.131 639.397L667.707 627.949V620.479L685.142 621.519L687.34 647.902Z" fill="#2F2E41"/>
<path d="M671.771 427.131C671.771 427.131 680.691 442.941 687.281 451.451C693.369 459.157 692.585 463.25 691.8 473.039C691.16 480.039 692.431 493.221 686.181 499.201L681.141 611.881C681.141 611.881 665.85 616.173 665.13 608.973L625.651 465.691L630.368 429.058L671.771 427.131Z" fill="#2F2E41"/>
<path d="M598.747 625.894L589.082 620.58L604.981 580.773L619.245 588.616L598.747 625.894Z" fill="#9E616A"/>
<path d="M593.857 647.104L586.999 643.333L582.64 640.936L564.45 630.936C563.578 630.456 562.882 629.711 562.464 628.808C562.046 627.905 561.927 626.893 562.125 625.917C562.324 624.942 562.828 624.056 563.566 623.388C564.303 622.72 565.235 622.306 566.225 622.205L586.266 620.159L589.864 613.613L604.641 622.925L593.857 647.104Z" fill="#2F2E41"/>
<path d="M686.577 446.143C686.577 446.143 686.777 464.295 688.452 474.927C690.074 484.613 687.972 494.555 682.567 502.755C678.634 508.58 672.841 514.011 664.483 516.24L605.779 612.552C605.779 612.552 590.312 608.946 593.15 602.29L627.585 457.713L649.368 427.885L686.577 446.143Z" fill="#2F2E41"/>
<path d="M669.775 337.731L669.645 337.601L646.337 338.077L631.622 377.309C632.8 409.039 627.024 422.666 627.024 422.666L629.521 432.138L621.8 479.039L696.036 464.019L687.053 394.789C689.101 384.591 688.595 374.045 685.58 364.09C682.566 354.135 677.136 345.079 669.775 337.731Z" fill="#E6E6E6"/>
<path d="M569.865 417.907C570.656 418.147 571.49 418.211 572.308 418.095C573.126 417.978 573.909 417.684 574.601 417.232C575.293 416.78 575.877 416.182 576.313 415.48C576.749 414.778 577.026 413.989 577.124 413.168L596.749 408.877L589.273 401.591L571.783 406.783C570.393 406.71 569.025 407.149 567.938 408.017C566.85 408.885 566.119 410.122 565.883 411.493C565.647 412.864 565.921 414.275 566.655 415.457C567.389 416.639 568.532 417.51 569.865 417.907Z" fill="#9E616A"/>
<path d="M582.031 412.283L581.083 400.493L616.763 390.789L643.315 357.829C644.628 356.2 646.283 354.88 648.163 353.962C650.043 353.045 652.102 352.553 654.194 352.52C656.286 352.488 658.359 352.917 660.267 353.776C662.174 354.635 663.87 355.903 665.232 357.491C667.689 360.362 668.907 364.09 668.618 367.858C668.33 371.626 666.559 375.125 663.693 377.588L627.51 408.627L582.031 412.283Z" fill="#E6E6E6"/>
<path d="M634.68 293.036C636.353 286.879 640.303 281.589 645.731 278.236C651.159 274.884 657.659 273.72 663.913 274.981C670.167 276.241 675.708 279.832 679.413 285.025C683.119 290.218 684.712 296.626 683.869 302.95C683.027 309.274 679.812 315.041 674.877 319.084C669.941 323.126 663.653 325.141 657.287 324.72C650.921 324.3 644.953 321.475 640.592 316.819C636.231 312.162 633.803 306.022 633.8 299.643C633.799 297.411 634.094 295.189 634.68 293.036Z" fill="#9E616A"/>
<path d="M642.953 266.541C644.991 266.481 670.354 267.782 673.915 267.835C677.477 267.888 681.09 267.769 684.544 268.64C687.998 269.512 691.357 271.561 692.833 274.803C694.309 278.045 694.65 286.094 695.514 288.439C696.223 290.845 696.407 293.375 696.056 295.858C695.354 305.053 693.641 314.953 686.945 321.294C681.842 326.127 674.538 328.074 667.51 328.046C660.481 328.018 661.717 327.372 654.921 325.578C654.921 325.578 648.461 307.057 650.088 305.235C651.714 303.413 653.066 301.081 652.771 298.656C652.477 296.231 649.871 294.059 647.609 294.982C647.99 294.01 648.276 293.825 648.456 293.874C648.341 293.598 648.242 293.316 648.157 293.029C647.731 291.568 646.965 290.229 645.921 289.122C644.877 288.015 643.585 287.172 642.151 286.661C640.703 286.191 639.146 286.176 637.689 286.617C636.232 287.058 634.945 287.934 634.001 289.128C626.559 282.149 631.176 266.891 642.953 266.541Z" fill="#2F2E41"/>
<path d="M249.983 416.081C282.565 411.811 318.938 407.46 347.451 427.556C358.934 435.649 367.92 447.356 370.662 461.321C372.395 470.15 371.844 479.219 371.955 488.16C372.056 496.168 372.775 504.158 375.474 511.747C380.037 524.581 388.978 535.481 400.041 543.304C412.044 551.663 426.26 556.264 440.884 556.523C473.263 557.332 502.785 539.776 523.397 515.827C545.534 490.108 558.232 458.21 569.314 426.555C570.775 422.381 572.221 418.202 573.653 414.018C574.283 412.189 571.386 411.403 570.76 413.221C559.686 445.4 548.33 478.236 527.685 505.738C508.752 530.962 481.227 551.013 448.949 553.331C434.234 554.388 419.429 551.49 406.648 543.998C394.914 537.119 385.084 526.759 379.647 514.218C376.721 507.104 375.159 499.503 375.041 491.811C374.715 482.909 375.369 473.96 374.271 465.095C372.512 450.885 365.295 438.489 354.46 429.228C343.513 420.098 330.373 413.983 316.339 411.488C298.863 408.195 280.972 409.34 263.422 411.388C258.937 411.911 254.46 412.494 249.983 413.081C248.096 413.328 248.071 416.331 249.983 416.081Z" fill="#3F3D56"/>
<path d="M517.85 343.449C512.14 349.509 503.84 352.719 495.54 353.359C489.59 353.817 483.61 353.05 477.968 351.105C472.327 349.16 467.145 346.078 462.741 342.051C458.338 338.024 454.808 333.136 452.369 327.69C449.929 322.244 448.633 316.356 448.56 310.389C448.47 303.689 449.93 297.019 449.6 290.319C448.78 273.769 437.16 258.729 438.4 242.199L446.36 244.669C441.02 242.989 435.68 241.309 430.34 239.629C428.508 239.14 426.752 238.403 425.12 237.439C420.46 234.379 419.09 227.629 421.33 222.519C423.58 217.409 428.77 213.989 434.24 212.849C437.962 212.143 441.786 212.166 445.5 212.919C447.277 213.236 449.033 213.66 450.76 214.189C455.793 212.531 461.138 212.039 466.39 212.753C471.641 213.467 476.661 215.367 481.07 218.309C486.427 221.992 490.646 227.102 493.25 233.059C494.914 236.818 495.886 240.846 496.12 244.949C496.72 256.109 491.96 267.669 492.64 278.449C492.786 281.398 493.446 284.298 494.59 287.019C500.49 300.749 519.04 306.179 523.69 320.389C526.28 328.299 523.56 337.389 517.85 343.449Z" fill="#2F2E41"/>
<path d="M522.187 558.025L514.529 565.962L480.27 540.2L491.573 528.486L522.187 558.025Z" fill="#9E616A"/>
<path d="M541.378 568.296L535.944 573.928L532.49 577.508L518.077 592.446C517.387 593.163 516.485 593.639 515.504 593.806C514.523 593.974 513.515 593.823 512.626 593.377C511.736 592.93 511.013 592.211 510.562 591.325C510.11 590.438 509.954 589.43 510.115 588.449L513.386 568.571L508.01 563.384L520.865 551.56L541.378 568.296Z" fill="#2F2E41"/>
<path d="M448.577 573.145L438.648 577.948L415.399 541.936L430.053 534.848L448.577 573.145Z" fill="#9E616A"/>
<path d="M463.037 589.414L455.992 592.822L451.514 594.988L432.828 604.027C431.932 604.461 430.922 604.596 429.943 604.415C428.965 604.233 428.071 603.743 427.391 603.017C426.71 602.291 426.28 601.366 426.163 600.378C426.045 599.39 426.246 598.391 426.737 597.525L436.674 580.001L433.421 573.277L449.569 566.621L463.037 589.414Z" fill="#2F2E41"/>
<path d="M464.771 374.131C464.771 374.131 473.691 389.941 480.281 398.451C486.369 406.157 485.585 410.25 484.8 420.039C484.16 427.039 485.431 440.221 479.181 446.201L476.45 507.269L510.141 545.881C510.141 545.881 496.52 565.239 495.8 558.039L445.921 511.661L418.651 412.691L423.368 376.058L464.771 374.131Z" fill="#2F2E41"/>
<path d="M479.578 393.143C479.578 393.143 479.777 411.295 481.452 421.927C483.074 431.613 480.972 441.555 475.567 449.755C471.634 455.58 465.841 461.011 457.483 463.24L428.904 510.127L444.779 555.552C444.779 555.552 421.962 568.696 424.8 562.039L397.181 502.978L420.585 404.713L442.368 374.885L479.578 393.143Z" fill="#2F2E41"/>
<path d="M462.775 284.731L462.645 284.601L439.337 285.077L424.622 324.309C425.8 356.039 420.024 369.666 420.024 369.666L422.521 379.138L423.546 381.919L489.036 411.019L480.053 341.789C482.101 331.591 481.595 321.045 478.58 311.09C475.566 301.135 470.136 292.079 462.775 284.731Z" fill="white"/>
<path d="M362.865 364.907C363.656 365.147 364.49 365.211 365.308 365.095C366.126 364.978 366.909 364.684 367.601 364.232C368.293 363.78 368.877 363.182 369.313 362.48C369.749 361.778 370.026 360.989 370.124 360.168L389.749 355.877L382.273 348.591L364.783 353.783C363.393 353.71 362.025 354.149 360.938 355.017C359.85 355.885 359.119 357.122 358.883 358.493C358.647 359.864 358.921 361.275 359.655 362.457C360.389 363.639 361.532 364.51 362.865 364.907Z" fill="#9E616A"/>
<path d="M375.031 359.283L374.083 347.493L409.763 337.789L436.315 304.829C437.628 303.2 439.283 301.88 441.163 300.962C443.043 300.045 445.102 299.553 447.194 299.52C449.286 299.488 451.359 299.917 453.267 300.776C455.174 301.635 456.87 302.903 458.232 304.491C460.689 307.362 461.907 311.09 461.618 314.858C461.33 318.626 459.559 322.125 456.693 324.588L420.51 355.627L375.031 359.283Z" fill="white"/>
<path d="M513.879 412.731C514.198 411.968 514.346 411.145 514.312 410.319C514.278 409.493 514.064 408.685 513.684 407.951C513.304 407.217 512.768 406.576 512.113 406.071C511.458 405.567 510.701 405.213 509.894 405.033L507.597 385.075L499.597 391.781L503.004 409.705C502.792 411.08 503.091 412.485 503.846 413.654C504.6 414.823 505.757 415.675 507.098 416.048C508.438 416.421 509.869 416.289 511.119 415.678C512.369 415.066 513.351 414.018 513.879 412.731Z" fill="#9E616A"/>
<path d="M509.507 400.062L497.681 399.82L491.612 363.345L461.489 333.614C460 332.144 458.853 330.365 458.129 328.402C457.405 326.439 457.122 324.341 457.3 322.256C457.479 320.172 458.113 318.152 459.16 316.341C460.206 314.529 461.639 312.97 463.356 311.775C466.459 309.618 470.291 308.781 474.01 309.447C477.73 310.113 481.033 312.227 483.196 315.325L510.441 354.445L509.507 400.062Z" fill="white"/>
<path d="M427.68 240.036C429.353 233.879 433.303 228.589 438.731 225.236C444.159 221.884 450.659 220.72 456.913 221.981C463.167 223.241 468.708 226.832 472.413 232.025C476.119 237.218 477.712 243.626 476.869 249.95C476.027 256.274 472.812 262.041 467.877 266.084C462.941 270.126 456.653 272.141 450.287 271.72C443.921 271.3 437.953 268.475 433.592 263.819C429.231 259.162 426.803 253.022 426.8 246.643C426.799 244.411 427.094 242.189 427.68 240.036Z" fill="#9E616A"/>
<path d="M424.485 385.875C420.095 385.859 415.774 384.783 411.89 382.739C408.005 380.695 404.672 377.742 402.174 374.132C400.789 372.043 399.594 369.452 400.401 366.919C400.618 366.03 401.15 365.249 401.898 364.722C402.646 364.195 403.56 363.956 404.471 364.051C406.446 364.327 408.144 365.837 409.469 367.221C411.259 369.199 412.903 371.305 414.386 373.522C416.734 376.84 421.304 382.212 417.771 386.185C414.799 389.527 409.8 389.81 405.799 391.015C401.476 392.318 397.05 395.239 396.662 400.166C396.284 404.958 400.887 408.191 405.133 408.886C407.671 409.247 410.259 408.981 412.671 408.11C415.082 407.239 417.243 405.791 418.965 403.891C422.332 399.998 424.17 395.014 424.137 389.867C424.131 389.478 423.973 389.107 423.698 388.831C423.423 388.556 423.051 388.399 422.662 388.392C422.273 388.385 421.897 388.53 421.612 388.795C421.328 389.06 421.157 389.426 421.137 389.815C421.063 394.503 419.527 399.29 416.055 402.576C412.804 405.651 407.638 407.117 403.401 405.305C401.306 404.409 399.357 402.524 399.681 400.07C399.979 397.818 401.809 396.055 403.72 395.038C408.044 392.739 413.236 392.942 417.453 390.289C421.474 387.759 423.078 383.525 421.251 379.037C420.101 376.547 418.671 374.196 416.989 372.03C415.448 369.754 413.77 367.574 411.965 365.502C409.254 362.523 405.006 359.636 400.925 361.762C396.273 364.186 396.583 370.264 398.735 374.24C403.643 383.306 414.315 388.836 424.432 388.875C424.821 388.868 425.192 388.711 425.468 388.435C425.743 388.16 425.9 387.789 425.907 387.4C425.914 387.011 425.769 386.635 425.504 386.35C425.239 386.065 424.873 385.895 424.485 385.875Z" fill="#2F2E41"/>
<path d="M492.64 278.45L452.78 270.3C451.33 262.65 464.72 252.34 468.2 239.77C461.98 239.02 453.65 237.77 446.44 236.14C439.23 234.5 433.13 232.49 431.37 230.2C432.648 223.963 436.35 218.489 441.662 214.981C446.974 211.472 453.462 210.217 459.7 211.489L464.59 212.489C464.75 212.519 464.91 212.56 465.07 212.6C471.064 213.941 476.311 217.54 479.72 222.65C484.728 225.418 489.29 228.928 493.25 233.06C494.914 236.818 495.886 240.846 496.12 244.949C496.72 256.11 491.96 267.67 492.64 278.45Z" fill="#2F2E41"/>
</g>
</svg>
